<?xml version="1.0" standalone="no"?>
<!DOCTYPE svg PUBLIC "-//W3C//DTD SVG 20010904//EN"
 "http://www.w3.org/TR/2001/REC-SVG-20010904/DTD/svg10.dtd">
<svg version="1.0" xmlns="http://www.w3.org/2000/svg"
 width="1200.000000pt" height="1200.000000pt" viewBox="0 0 1200.000000 1200.000000"
 preserveAspectRatio="xMidYMid meet">
<metadata>
Created by potrace 1.14, written by Peter Selinger 2001-2017
</metadata>
<g transform="translate(0.000000,1200.000000) scale(0.100000,-0.100000)"
fill="#000000" stroke="none">
<path d="M0 6000 l0 -6000 6000 0 6000 0 0 6000 0 6000 -6000 0 -6000 0 0
-6000z m10140 4954 c53 -31 255 -321 395 -569 346 -609 551 -1274 632 -2055
21 -209 25 -853 5 -1065 -40 -433 -97 -783 -194 -1190 -35 -148 -54 -190 -104
-225 -43 -29 -138 -39 -184 -20 -44 18 -105 92 -120 143 -11 40 -8 61 34 248
265 1187 243 2223 -68 3164 -149 451 -339 823 -619 1214 -59 81 -90 157 -82
198 2 10 6 30 10 45 8 38 62 98 110 120 49 23 138 19 185 -8z m-5310 -105
c257 -20 585 -87 832 -169 469 -157 851 -387 1192 -720 626 -611 959 -1454
992 -2512 24 -766 -174 -1378 -621 -1924 -247 -300 -488 -512 -1070 -939 -424
-311 -499 -371 -648 -514 -263 -255 -348 -410 -402 -731 -110 -660 -354 -1247
-706 -1700 -97 -125 -310 -343 -429 -439 -272 -219 -589 -373 -910 -443 -91
-19 -134 -22 -320 -22 -185 0 -229 3 -316 22 -519 113 -923 441 -1169 947
-110 227 -180 444 -230 718 -43 238 -30 319 64 379 41 27 53 29 113 26 55 -3
75 -9 109 -33 56 -40 77 -85 95 -202 122 -816 544 -1351 1144 -1449 121 -20
338 -13 460 15 548 126 1045 565 1353 1194 153 313 251 628 317 1022 34 208
55 289 103 400 80 186 187 336 377 525 165 166 296 272 696 565 487 358 640
482 838 681 399 398 616 813 702 1339 25 156 30 613 9 835 -77 816 -343 1438
-815 1910 -138 139 -233 217 -394 324 -933 622 -2306 646 -3391 58 -142 -76
-365 -226 -491 -331 -126 -103 -324 -302 -412 -414 -264 -335 -436 -736 -497
-1162 -18 -124 -25 -395 -15 -610 4 -97 3 -114 -15 -144 -83 -140 -293 -138
-356 4 -23 51 -39 218 -39 400 0 629 205 1244 582 1741 555 732 1465 1223
2493 1345 213 25 525 29 775 8z m4100 -1211 c129 -66 410 -560 529 -932 115
-357 156 -644 156 -1071 -1 -372 -26 -599 -106 -960 -35 -160 -44 -180 -95
-224 -47 -42 -73 -51 -140 -51 -66 0 -101 16 -147 70 -56 66 -62 109 -32 242
37 165 72 375 91 550 20 185 23 563 5 728 -51 468 -193 878 -424 1220 -129
192 -122 178 -122 251 0 87 33 140 108 175 65 30 120 30 177 2z m-4166 -173
c899 -105 1542 -666 1730 -1507 32 -142 56 -326 56 -425 0 -136 -60 -211 -176
-221 -134 -11 -224 77 -224 218 0 25 -5 84 -10 130 -76 614 -389 1052 -917
1285 -558 245 -1312 170 -1846 -185 -128 -85 -292 -238 -383 -360 -61 -79
-184 -305 -184 -335 0 -9 29 0 93 30 294 138 588 207 887 208 279 0 496 -50
743 -174 167 -84 307 -190 463 -351 161 -167 266 -316 364 -520 128 -267 179
-473 187 -758 8 -281 -25 -449 -128 -650 -116 -226 -242 -340 -544 -490 -575
-285 -900 -524 -1074 -790 -97 -147 -136 -274 -147 -475 -4 -66 -15 -153 -25
-192 -79 -314 -397 -609 -758 -704 -351 -91 -689 4 -941 268 -207 215 -333
503 -401 919 -25 156 -22 218 14 272 54 83 190 110 275 55 44 -29 92 -106 92
-149 0 -53 45 -279 77 -384 86 -286 219 -473 398 -561 166 -81 328 -76 520 16
145 70 246 166 310 294 24 46 29 75 41 221 15 183 43 311 93 431 124 298 355
550 736 804 183 122 291 183 570 323 215 108 235 120 301 186 77 77 139 187
170 301 27 101 30 318 6 461 -108 633 -559 1120 -1129 1219 -100 18 -298 20
-410 4 -232 -31 -493 -127 -742 -272 l-124 -72 7 -105 c20 -325 158 -713 406
-1135 78 -133 86 -173 51 -250 -38 -83 -145 -146 -224 -131 -72 14 -119 56
-189 173 -241 400 -384 775 -444 1158 -26 168 -24 444 5 610 45 258 160 536
309 744 79 112 244 287 351 373 347 280 790 453 1281 501 99 10 370 5 484 -8z"/>
</g>
</svg>
